<svg width="40" height="40" viewBox="0 0 40 40" fill="none" xmlns="http://www.w3.org/2000/svg">
<path d="M22.0693 13.5678L20.2054 15.3738L18.3416 13.5678C16.3872 11.6741 13.2521 11.7787 11.4282 13.7984C9.65847 15.7581 9.41482 18.6936 11.0174 20.7923C11.2143 21.0502 11.408 21.2972 11.5922 21.5232C12.7587 22.9542 15.3037 25.4531 16.5788 26.7942C17.5209 27.785 18.3677 28.6113 19.0057 29.2132C19.6794 29.8488 20.7194 29.835 21.3944 29.2007C22.5707 28.0954 24.3747 26.3736 25.6453 25.0372C26.9205 23.6961 27.6522 22.9542 28.8186 21.5232C29.0029 21.2972 29.1965 21.0502 29.3935 20.7923C30.996 18.6936 30.7524 15.7581 28.9826 13.7984C27.1588 11.7787 24.0236 11.6741 22.0693 13.5678Z" stroke="#898989" stroke-width="2.02054" stroke-linecap="round" stroke-linejoin="round"/>
</svg>
